<?xml version="1.0" encoding="UTF-8" standalone="no"?><svg xmlns="http://www.w3.org/2000/svg" xmlns:xlink="http://www.w3.org/1999/xlink" contentScriptType="application/ecmascript" contentStyleType="text/css" height="138px" preserveAspectRatio="none" style="width:380px;height:138px;background:#FFFFFF;" version="1.1" viewBox="0 0 380 138" width="380px" zoomAndPan="magnify"><defs><filter height="300%" id="f1sfn6j8ayjc4f" width="300%" x="-1" y="-1"><feGaussianBlur result="blurOut" stdDeviation="2.0"/><feColorMatrix in="blurOut" result="blurOut2" type="matrix" values="0 0 0 0 0 0 0 0 0 0 0 0 0 0 0 0 0 0 .4 0"/><feOffset dx="4.0" dy="4.0" in="blurOut2" result="blurOut3"/><feBlend in="SourceGraphic" in2="blurOut3" mode="normal"/></filter></defs><g><rect fill="#FEFECE" filter="url(#f1sfn6j8ayjc4f)" height="33.9688" style="stroke:#A80036;stroke-width:1.5;" width="42" x="275.5" y="91"/><text fill="#000000" font-family="sans-serif" font-size="12" lengthAdjust="spacing" textLength="28" x="282.5" y="104.1387">View</text><line style="stroke:#A80036;stroke-width:1.5;" x1="276.5" x2="316.5" y1="108.9688" y2="108.9688"/><rect fill="#FEFECE" filter="url(#f1sfn6j8ayjc4f)" height="33.9688" style="stroke:#A80036;stroke-width:1.5;" width="76" x="145.5" y="91"/><text fill="#000000" font-family="sans-serif" font-size="12" lengthAdjust="spacing" textLength="62" x="152.5" y="104.1387">Presenter</text><line style="stroke:#A80036;stroke-width:1.5;" x1="146.5" x2="220.5" y1="108.9688" y2="108.9688"/><rect fill="#FEFECE" filter="url(#f1sfn6j8ayjc4f)" height="33.9688" style="stroke:#A80036;stroke-width:1.5;" width="51" x="45" y="91"/><text fill="#000000" font-family="sans-serif" font-size="12" lengthAdjust="spacing" textLength="37" x="52" y="104.1387">Model</text><line style="stroke:#A80036;stroke-width:1.5;" x1="46" x2="95" y1="108.9688" y2="108.9688"/><path d="M6,6 L6,31.1328 A0,0 0 0 0 6,31.1328 L53.52,31.1328 L67.75,90.94 L61.52,31.1328 L105,31.1328 A0,0 0 0 0 105,31.1328 L105,16 L95,6 L6,6 A0,0 0 0 0 6,6 " fill="#FBFB77" filter="url(#f1sfn6j8ayjc4f)" style="stroke:#A80036;stroke-width:1.0;"/><path d="M95,6 L95,16 L105,16 L95,6 " fill="#FBFB77" style="stroke:#A80036;stroke-width:1.0;"/><text fill="#000000" font-family="sans-serif" font-size="13" lengthAdjust="spacing" textLength="78" x="12" y="23.0669">データの実体</text><path d="M262,6 L262,31.1328 A0,0 0 0 0 262,31.1328 L309.8,31.1328 L300.17,90.94 L317.8,31.1328 L371,31.1328 A0,0 0 0 0 371,31.1328 L371,16 L361,6 L262,6 A0,0 0 0 0 262,6 " fill="#FBFB77" filter="url(#f1sfn6j8ayjc4f)" style="stroke:#A80036;stroke-width:1.0;"/><path d="M361,6 L361,16 L371,16 L361,6 " fill="#FBFB77" style="stroke:#A80036;stroke-width:1.0;"/><text fill="#000000" font-family="sans-serif" font-size="13" lengthAdjust="spacing" textLength="88" x="268" y="23.0669">GUI周りの制御</text><path d="M140.5,6 L140.5,31.1328 A0,0 0 0 0 140.5,31.1328 L179.5,31.1328 L183.5,90.94 L187.5,31.1328 L226.5,31.1328 A0,0 0 0 0 226.5,31.1328 L226.5,16 L216.5,6 L140.5,6 A0,0 0 0 0 140.5,6 " fill="#FBFB77" filter="url(#f1sfn6j8ayjc4f)" style="stroke:#A80036;stroke-width:1.0;"/><path d="M216.5,6 L216.5,16 L226.5,16 L216.5,6 " fill="#FBFB77" style="stroke:#A80036;stroke-width:1.0;"/><text fill="#000000" font-family="sans-serif" font-size="13" lengthAdjust="spacing" textLength="65" x="146.5" y="23.0669">両者の仲介</text><!--MD5=[b45dd2cbd812e1afa4f94e30207d9218]
link Presenter to View--><path codeLine="8" d="M221.9,108 C237.87,108 253.84,108 269.81,108 " fill="none" id="Presenter-to-View" style="stroke:#A80036;stroke-width:1.0;"/><polygon fill="#A80036" points="275.23,108,266.23,104,270.23,108,266.23,112,275.23,108" style="stroke:#A80036;stroke-width:1.0;"/><!--MD5=[6d793f0d76b28b60d7fe9bd73c02f7da]
reverse link Model to Presenter--><path codeLine="9" d="M101.48,108 C116.07,108 130.67,108 145.26,108 " fill="none" id="Model-backto-Presenter" style="stroke:#A80036;stroke-width:1.0;"/><polygon fill="#A80036" points="96.1,108,105.1,112,101.1,108,105.1,104,96.1,108" style="stroke:#A80036;stroke-width:1.0;"/><!--MD5=[0f70d47483970ee703de7c9e8f62bd06]
@startuml
object View

object Presenter

object Model


Presenter - -r> View
Presenter - -l> Model

note top of Model: データの実体
note top of View: GUI周りの制御
note top of Presenter: 両者の仲介
@enduml

PlantUML version 1.2021.16(Wed Dec 08 17:25:22 UTC 2021)
(GPL source distribution)
Java Runtime: OpenJDK Runtime Environment
JVM: OpenJDK 64-Bit Server VM
Default Encoding: UTF-8
Language: en
Country: null
--></g></svg>